<?xml version="1.0" encoding="UTF-8" standalone="no"?>
<svg
   xmlns="http://www.w3.org/2000/svg"
   id="layers-info-icon"
   class="map-tool-icon-svg"
   version="1.1"
   viewBox="0 0 20 20"
>
<path
     d="M 15.957,11.807 15.23,12.169 18.549,13.827 10,18.102 1.453,13.827 4.77,12.169 4.044,11.807 0,13.827 10,18.828 20,13.827 Z"
     /><path
     d="M 15.662,7.979 14.936,8.342 18.549,10.146 10,14.421 1.453,10.146 5.065,8.342 4.338,7.979 0,10.146 l 10,5 10,-5 z"
     /><g><path
       d="m 10.126953,1.0991625 q 0.544271,0 0.923828,0.3867188 0.386719,0.3795573 0.386719,0.9238281 0,0.5514323 -0.386719,0.9381511 -0.379557,0.3795573 -0.923828,0.3795573 -0.5442707,0 -0.9309894,-0.3795573 -0.3795573,-0.3867188 -0.3795573,-0.9309896 0,-0.5371094 0.3938802,-0.9238282 0.3938802,-0.3938802 0.9166665,-0.3938802 z m 1.160156,3.1940105 v 5.2923178 q 0,0.3795573 0.04297,0.4654952 0.04297,0.08594 0.150391,0.136067 0.114583,0.04297 0.501302,0.04297 h 0.386719 v 1.382162 H 7.9427083 v -1.382162 h 0.3795573 q 0.3723959,0 0.4726563,-0.03581 0.1074219,-0.04297 0.1575521,-0.136068 0.05013,-0.093099 0.05013,-0.3723958 V 6.2697355 H 7.9427083 V 4.9233813 Q 8.5084636,4.8947355 9.0240886,4.8016365 9.546875,4.7085376 9.9550782,4.5796313 10.220052,4.4936938 10.606771,4.293173 Z"
       /></g></svg>