<?xml version="1.0" encoding="UTF-8" standalone="no"?>
<svg
   xmlns="http://www.w3.org/2000/svg"
   version="1.1"
   class="map-tool-icon-svg"
   id="feature-info-icon"
   viewBox="0 0 7.9374998 7.9375002"
>
	  <g transform="matrix(1.3164937,0,0,1.3161705,-4.9806983,-5.9802168)">
		<path
		   d="M 9.3889329,10.574403 H 7.7890712 v -0.07901 l 0.1185083,-0.0049 q 0.1431975,-0.01481 0.1728246,-0.06913 0.029627,-0.05432 0.029627,-0.237017 L 8.114969,9.9571722 V 8.7770273 L 8.1100311,8.5745757 Q 8.1001554,8.4560674 8.0804041,8.3968133 8.0606527,8.3375591 7.9026416,8.3227456 l -0.1333218,-0.00988 v -0.079006 h 1.2937154 v 1.7233078 l 0.00494,0.2271406 q 0,0.177762 0.029627,0.237017 0.029627,0.05432 0.1728245,0.06913 l 0.1185083,0.0049 z M 8.1050933,7.4092443 q 0,-0.1925759 0.1382596,-0.3258977 0.1431975,-0.1382597 0.3407113,-0.1382597 0.2024517,0 0.3407113,0.1333218 0.1431975,0.128384 0.1431975,0.3308356 0,0.1975138 -0.1431975,0.3357735 -0.1382596,0.1333218 -0.3407113,0.1333218 -0.1975138,0 -0.3407113,-0.1333218 Q 8.1050933,7.6067581 8.1050933,7.4092443 Z M 4.5087027,4.5734887 4.2535577,9.1389576 5.3699153,8.252798 6.0827512,10.213971 6.894505,9.9183225 6.1773511,7.9465487 7.6387433,7.9068935 Z"/>
	  </g>
</svg>
