<?xml version="1.0" encoding="utf-8"?>
<!-- Generator: Adobe Illustrator 15.0.2, SVG Export Plug-In . SVG Version: 6.00 Build 0)  -->
<!DOCTYPE svg PUBLIC "-//W3C//DTD SVG 1.1//EN" "http://www.w3.org/Graphics/SVG/1.1/DTD/svg11.dtd">
<svg version="1.1" id="Layer_1" xmlns="http://www.w3.org/2000/svg" xmlns:xlink="http://www.w3.org/1999/xlink" x="0px" y="0px"
	 width="20px" height="20px" viewBox="8 8 20 20" enable-background="new 8 8 20 20" xml:space="preserve">
<polygon fill="#4D4D4D" points="23.956,19.807 23.23,20.169 26.548,21.827 18,26.101 9.452,21.827 12.77,20.169 12.044,19.807 
	8,21.827 18,26.828 27.999,21.827 "/>
<polygon fill="#4D4D4D" points="23.661,15.979 22.936,16.342 26.548,18.147 18,22.421 9.452,18.147 13.064,16.342 12.338,15.979 
	8,18.147 18,23.147 27.999,18.147 "/>
<path fill="#4D4D4D" d="M18,19.171L8,14.172l10-5l10,5L18,19.171z M9.452,14.172L18,18.445l8.548-4.273L18,9.897L9.452,14.172z"/>
</svg>
