<?xml version="1.0" encoding="utf-8"?>
<!-- Generator: Adobe Illustrator 15.0.2, SVG Export Plug-In . SVG Version: 6.00 Build 0)  -->
<!DOCTYPE svg PUBLIC "-//W3C//DTD SVG 1.1//EN" "http://www.w3.org/Graphics/SVG/1.1/DTD/svg11.dtd">
<svg version="1.1" id="Layer_1" xmlns="http://www.w3.org/2000/svg" xmlns:xlink="http://www.w3.org/1999/xlink" x="0px" y="0px"
	 width="20px" height="20px" viewBox="8 8 20 20" enable-background="new 8 8 20 20" xml:space="preserve">
<path fill="#666666" d="M20.521,18.236c0.134,0,0.208-0.051,0.265-0.183c0.054-0.124,0.037-0.204-0.062-0.299L12.15,9.18
	c-0.082-0.086-0.18-0.117-0.305-0.063c-0.13,0.055-0.181,0.129-0.181,0.263v12.589c0,0.135,0.051,0.209,0.182,0.264
	c0.133,0.055,0.219,0.02,0.305-0.064l2.873-2.873l1.743,4.125c0.032,0.07,0.083,0.12,0.16,0.152
	c0.069,0.028,0.141,0.029,0.221-0.002l1.477-0.627c0.07-0.032,0.12-0.083,0.15-0.158c0.031-0.074,0.031-0.142-0.001-0.223
	l-1.827-4.326H20.521z"/>
<g>
	<path fill="#666666" d="M23.612,23.501c0.158-0.09,0.285-0.163,0.375-0.218c0.088-0.056,0.206-0.146,0.341-0.259
		c0.136-0.115,0.242-0.23,0.315-0.341c0.074-0.113,0.142-0.262,0.201-0.442c0.06-0.177,0.089-0.373,0.089-0.585
		c0-0.32-0.079-0.629-0.237-0.918c-0.16-0.296-0.37-0.549-0.624-0.752c-0.262-0.208-0.556-0.375-0.873-0.495
		c-0.317-0.123-0.638-0.185-0.951-0.185c-1.222,0-2.129,0.52-2.771,1.59c-0.016,0.025-0.02,0.045-0.016,0.072
		c0.003,0.019,0.01,0.039,0.041,0.063l1.024,0.781c0.018,0.01,0.046,0.02,0.065,0.02c0.012,0,0.04,0,0.077-0.046
		c0.311-0.388,0.539-0.632,0.697-0.744c0.206-0.141,0.462-0.211,0.762-0.211c0.284,0,0.539,0.077,0.757,0.228
		c0.236,0.161,0.357,0.358,0.357,0.585c0,0.23-0.065,0.424-0.192,0.573c-0.121,0.14-0.31,0.267-0.578,0.39
		c-0.304,0.136-0.587,0.352-0.844,0.641c-0.248,0.281-0.368,0.568-0.368,0.879v0.281c0,0.052,0.015,0.104,0.047,0.161
		c0.019,0.032,0.031,0.039,0.031,0.039l1.497-0.001c0.007,0,0.026,0,0.057-0.038c0.029-0.037,0.043-0.074,0.043-0.11
		c0-0.138,0.064-0.302,0.197-0.503C23.26,23.76,23.422,23.606,23.612,23.501z"/>
	<path fill="#666666" d="M21.359,27.006h1.5c0.027,0,0.048-0.009,0.069-0.03c0.021-0.021,0.03-0.041,0.03-0.068v-1.5
		c0-0.023-0.005-0.043-0.03-0.067c-0.022-0.023-0.042-0.032-0.069-0.032h-1.5c-0.026,0-0.046,0.008-0.065,0.028
		c-0.029,0.029-0.034,0.049-0.034,0.071v1.5c0,0.019,0.004,0.041,0.032,0.069C21.313,26.997,21.332,27.006,21.359,27.006z"/>
</g>
</svg>
