<?xml version="1.0" encoding="UTF-8" standalone="no"?>
<svg
   xmlns="http://www.w3.org/2000/svg"
   id="layers-info-icon"
   class="map-tool-icon-svg"
   version="1.1"
   viewBox="8 8 35 35">
  <path
     transform="translate(8,8)"
     d="M 17.75 3.4765625 L 1.1152344 11.824219 L 7.2832031 14.917969 L 1.1152344 18.013672 L 6.828125 20.880859 L 1.1152344 23.744141 L 17.75 32.09375 L 34.384766 23.744141 L 28.671875 20.880859 L 34.384766 18.013672 L 28.212891 14.917969 L 34.382812 11.824219 L 17.75 3.4765625 z M 17.75 4.5957031 L 32.15625 11.822266 L 27.097656 14.359375 L 27.087891 14.353516 L 32.130859 11.824219 L 17.75 4.6054688 L 3.3691406 11.824219 L 4.2597656 12.269531 L 8.4121094 14.353516 L 8.4003906 14.359375 L 3.34375 11.822266 L 17.75 4.5957031 z M 17.75 5.7246094 L 29.902344 11.822266 L 17.75 17.917969 L 5.5976562 11.822266 L 17.75 5.7246094 z M 8.4023438 15.478516 L 8.4121094 15.484375 L 3.3671875 18.013672 L 4.2617188 18.462891 L 7.9550781 20.316406 L 7.9453125 20.320312 L 3.3496094 18.013672 L 8.4023438 15.478516 z M 10.65625 15.478516 L 17.75 19.037109 L 24.84375 15.478516 L 24.855469 15.484375 L 17.75 19.048828 L 10.644531 15.484375 L 10.65625 15.478516 z M 27.095703 15.478516 L 32.150391 18.015625 L 27.556641 20.320312 L 27.544922 20.316406 L 32.132812 18.013672 L 27.085938 15.484375 L 27.095703 15.478516 z M 9.5292969 16.044922 L 17.75 20.167969 L 17.974609 20.054688 L 25.970703 16.044922 L 29.898438 18.013672 L 17.75 24.109375 L 5.6015625 18.013672 L 9.5292969 16.044922 z M 7.9453125 21.439453 L 7.953125 21.445312 L 3.3671875 23.744141 L 4.2617188 24.193359 L 17.75 30.962891 L 32.132812 23.744141 L 27.546875 21.445312 L 27.554688 21.439453 L 32.150391 23.746094 L 17.75 30.974609 L 3.3496094 23.746094 L 7.9453125 21.439453 z M 10.197266 21.441406 L 17.75 25.230469 L 25.302734 21.441406 L 25.3125 21.445312 L 17.75 25.240234 L 10.1875 21.445312 L 10.197266 21.441406 z M 9.0722656 22.005859 L 17.75 26.359375 L 26.427734 22.005859 L 29.898438 23.746094 L 17.75 29.841797 L 5.6015625 23.746094 L 9.0722656 22.005859 z "
     />
</svg>
